<svg xmlns="http://www.w3.org/2000/svg" viewBox="0 0 320 220" width="320" height="220">
  <rect width="320" height="220" rx="8" fill="#101010" stroke="rgba(255,255,255,0.09)" stroke-width="1"/>
  <rect width="320" height="38" rx="8" fill="#141414"/>
  <rect y="30" width="320" height="8" fill="#141414"/>
  <rect y="37" width="320" height="1" fill="rgba(255,255,255,0.06)"/>
  <g transform="translate(12,9) scale(0.078125)" fill="none"><path d="M22 71.5L135 19" stroke="#3A9B4B" stroke-width="18" stroke-linecap="round"/><path d="M22 103.5L234 5" stroke="#3A9B4B" stroke-width="18" stroke-linecap="round"/><path d="M22 135.5L234 37" stroke="#3A9B4B" stroke-width="18" stroke-linecap="round"/><path d="M22 167.5L234 69" stroke="#3A9B4B" stroke-width="18" stroke-linecap="round"/><path d="M155 118L229 83.5" stroke="#3A9B4B" stroke-width="18" stroke-linecap="round"/><path d="M96 118V181H62L67 207H189L194 181H159V130" stroke="#3A9B4B" stroke-width="18" stroke-linecap="round" stroke-linejoin="round"/><path d="M71 217L184 197" stroke="#3A9B4B" stroke-width="12" stroke-linecap="round"/><path d="M75 239L176 221" stroke="#3A9B4B" stroke-width="12" stroke-linecap="round"/><path d="M112 150C112 147.7 114.5 146.3 116.5 147.5L142.5 163.2C145.5 165 145.5 170 142.5 171.8L116.5 187.5C114.5 188.7 112 187.3 112 185V150Z" fill="#D8D4CF"/></g>
  <text x="40" y="24" font-family="system-ui,sans-serif" font-size="11" font-weight="700" fill="#DEDAD5">sample-video.mkv — Lumyn</text>
  <circle cx="282" cy="19" r="5.5" fill="#4c4c4c"/>
  <circle cx="296" cy="19" r="5.5" fill="#4c4c4c"/>
  <circle cx="310" cy="19" r="5.5" fill="#4c4c4c"/>

  <rect x="0" y="38" width="320" height="130" fill="#151515"/>
  <radialGradient id="glow-ss" cx="20%" cy="30%" r="60%">
    <stop offset="0%" stop-color="#3a9b4b" stop-opacity="0.25"/>
    <stop offset="100%" stop-color="#151515" stop-opacity="0"/>
  </radialGradient>
  <rect x="0" y="38" width="320" height="130" fill="url(#glow-ss)"/>

  <!-- subtitle search dialog -->
  <rect x="60" y="50" width="200" height="108" rx="6" fill="#1A1A1A" stroke="rgba(255,255,255,0.08)" stroke-width="1"/>
  <text x="73" y="67" font-family="system-ui,sans-serif" font-size="9" font-weight="700" fill="#DEDAD5">Search Subtitles</text>
  <line x1="67" y1="72" x2="253" y2="72" stroke="rgba(255,255,255,0.07)" stroke-width="1"/>
  <!-- search input -->
  <rect x="70" y="78" width="140" height="18" rx="3" fill="#252525" stroke="rgba(255,255,255,0.1)" stroke-width="1"/>
  <text x="76" y="91" font-family="system-ui,sans-serif" font-size="8" fill="#807C79">Inception (2010)</text>
  <rect x="214" y="78" width="36" height="18" rx="3" fill="#2A3A2E" stroke="rgba(58,155,75,0.4)" stroke-width="1"/>
  <text x="220" y="91" font-family="system-ui,sans-serif" font-size="8" fill="#3a9b4b" font-weight="600">Search</text>
  <!-- results -->
  <rect x="70" y="102" width="180" height="14" rx="2" fill="#222222"/>
  <text x="75" y="113" font-family="system-ui,sans-serif" font-size="7.5" fill="#C8C3C2">Inception.2010.BluRay.en.srt</text>
  <text x="235" y="113" font-family="system-ui,sans-serif" font-size="7" fill="#3a9b4b">↓</text>

  <rect x="70" y="120" width="180" height="14" rx="2" fill="#1E1E1E"/>
  <text x="75" y="131" font-family="system-ui,sans-serif" font-size="7.5" fill="#807C79">Inception.2010.HDTV.en.srt</text>
  <text x="235" y="131" font-family="system-ui,sans-serif" font-size="7" fill="#6A6560">↓</text>

  <rect x="70" y="138" width="180" height="14" rx="2" fill="#1E1E1E"/>
  <text x="75" y="149" font-family="system-ui,sans-serif" font-size="7.5" fill="#807C79">Inception.2010.WEB.en.srt</text>
  <text x="235" y="149" font-family="system-ui,sans-serif" font-size="7" fill="#6A6560">↓</text>

  <rect x="0" y="168" width="320" height="52" fill="url(#ctrl-grad-ss)"/>
  <linearGradient id="ctrl-grad-ss" x1="0" y1="0" x2="0" y2="1">
    <stop offset="0%" stop-color="#111111"/>
    <stop offset="100%" stop-color="#050505"/>
  </linearGradient>
  <rect x="14" y="174" width="292" height="5" rx="2.5" fill="#3a3a3a"/>
  <rect x="14" y="174" width="140" height="5" rx="2.5" fill="#3a9b4b"/>
  <text x="14" y="198" font-family="system-ui,sans-serif" font-size="9" font-weight="700" fill="#6A6560">01:04</text>
  <rect x="134" y="189" width="14" height="14" rx="2" fill="#807C79" opacity="0.82"/>
  <rect x="153" y="189" width="14" height="14" rx="2" fill="#807C79" opacity="0.82"/>
  <rect x="172" y="189" width="14" height="14" rx="2" fill="#807C79" opacity="0.82"/>
  <rect x="191" y="189" width="14" height="14" rx="2" fill="#807C79" opacity="0.82"/>
  <text x="294" y="198" font-family="system-ui,sans-serif" font-size="9" font-weight="700" fill="#6A6560" text-anchor="end">1:28:04</text>
</svg>
