<svg xmlns="http://www.w3.org/2000/svg" viewBox="0 0 320 220" width="320" height="220">
  <rect width="320" height="220" rx="8" fill="#101010" stroke="rgba(255,255,255,0.09)" stroke-width="1"/>
  <rect width="320" height="38" rx="8" fill="#141414"/>
  <rect y="30" width="320" height="8" fill="#141414"/>
  <rect y="37" width="320" height="1" fill="rgba(255,255,255,0.06)"/>
  <g transform="translate(12,9) scale(0.078125)" fill="none"><path d="M22 71.5L135 19" stroke="#3A9B4B" stroke-width="18" stroke-linecap="round"/><path d="M22 103.5L234 5" stroke="#3A9B4B" stroke-width="18" stroke-linecap="round"/><path d="M22 135.5L234 37" stroke="#3A9B4B" stroke-width="18" stroke-linecap="round"/><path d="M22 167.5L234 69" stroke="#3A9B4B" stroke-width="18" stroke-linecap="round"/><path d="M155 118L229 83.5" stroke="#3A9B4B" stroke-width="18" stroke-linecap="round"/><path d="M96 118V181H62L67 207H189L194 181H159V130" stroke="#3A9B4B" stroke-width="18" stroke-linecap="round" stroke-linejoin="round"/><path d="M71 217L184 197" stroke="#3A9B4B" stroke-width="12" stroke-linecap="round"/><path d="M75 239L176 221" stroke="#3A9B4B" stroke-width="12" stroke-linecap="round"/><path d="M112 150C112 147.7 114.5 146.3 116.5 147.5L142.5 163.2C145.5 165 145.5 170 142.5 171.8L116.5 187.5C114.5 188.7 112 187.3 112 185V150Z" fill="#D8D4CF"/></g>
  <text x="40" y="24" font-family="system-ui,sans-serif" font-size="11" font-weight="700" fill="#DEDAD5">sample-video.mkv — Lumyn</text>
  <circle cx="282" cy="19" r="5.5" fill="#4c4c4c"/>
  <circle cx="296" cy="19" r="5.5" fill="#4c4c4c"/>
  <circle cx="310" cy="19" r="5.5" fill="#4c4c4c"/>

  <rect x="0" y="38" width="320" height="130" fill="#151515"/>
  <radialGradient id="glow-sp" cx="50%" cy="50%" r="50%">
    <stop offset="0%" stop-color="#3a9b4b" stop-opacity="0.2"/>
    <stop offset="100%" stop-color="#151515" stop-opacity="0"/>
  </radialGradient>
  <rect x="0" y="38" width="320" height="130" fill="url(#glow-sp)"/>

  <!-- speed OSD overlay -->
  <rect x="100" y="70" width="120" height="60" rx="8" fill="rgba(20,20,20,0.88)" stroke="rgba(255,255,255,0.08)" stroke-width="1"/>
  <text x="160" y="92" text-anchor="middle" font-family="system-ui,sans-serif" font-size="10" fill="#807C79">Playback Speed</text>
  <text x="160" y="118" text-anchor="middle" font-family="system-ui,sans-serif" font-size="26" font-weight="800" fill="#3a9b4b">1.5×</text>

  <!-- speed bar ticks -->
  <g fill="none" stroke="#3a3a3a" stroke-width="1">
    <line x1="80" y1="148" x2="80" y2="158"/>
    <line x1="104" y1="148" x2="104" y2="155"/>
    <line x1="128" y1="148" x2="128" y2="158"/>
    <line x1="152" y1="148" x2="152" y2="155"/>
    <line x1="176" y1="148" x2="176" y2="162"/>
    <line x1="200" y1="148" x2="200" y2="155"/>
    <line x1="224" y1="148" x2="224" y2="158"/>
    <line x1="248" y1="148" x2="248" y2="155"/>
  </g>
  <line x1="80" y1="155" x2="248" y2="155" stroke="#2a2a2a" stroke-width="1"/>
  <circle cx="200" cy="155" r="5" fill="#3a9b4b"/>
  <text x="80" y="166" text-anchor="middle" font-family="system-ui,sans-serif" font-size="7" fill="#4A4948">0.25×</text>
  <text x="176" y="166" text-anchor="middle" font-family="system-ui,sans-serif" font-size="7" fill="#807C79">1×</text>
  <text x="248" y="166" text-anchor="middle" font-family="system-ui,sans-serif" font-size="7" fill="#4A4948">4×</text>

  <rect x="0" y="168" width="320" height="52" fill="url(#ctrl-grad-sp)"/>
  <linearGradient id="ctrl-grad-sp" x1="0" y1="0" x2="0" y2="1">
    <stop offset="0%" stop-color="#111111"/>
    <stop offset="100%" stop-color="#050505"/>
  </linearGradient>
  <rect x="14" y="174" width="292" height="5" rx="2.5" fill="#3a3a3a"/>
  <rect x="14" y="174" width="200" height="5" rx="2.5" fill="#3a9b4b"/>
  <text x="14" y="198" font-family="system-ui,sans-serif" font-size="9" font-weight="700" fill="#6A6560">22:48</text>
  <rect x="134" y="189" width="14" height="14" rx="2" fill="#807C79" opacity="0.82"/>
  <rect x="153" y="189" width="14" height="14" rx="2" fill="#807C79" opacity="0.82"/>
  <rect x="172" y="189" width="14" height="14" rx="2" fill="#807C79" opacity="0.82"/>
  <rect x="191" y="189" width="14" height="14" rx="2" fill="#807C79" opacity="0.82"/>
  <text x="294" y="198" font-family="system-ui,sans-serif" font-size="9" font-weight="700" fill="#6A6560" text-anchor="end">1:28:04</text>
</svg>
