<svg xmlns="http://www.w3.org/2000/svg" viewBox="0 0 320 220" width="320" height="220">
  <!-- window -->
  <rect width="320" height="220" rx="8" fill="#101010" stroke="rgba(255,255,255,0.09)" stroke-width="1"/>
  <!-- title bar -->
  <rect width="320" height="38" rx="8" fill="#141414"/>
  <rect y="30" width="320" height="8" fill="#141414"/>
  <rect y="37" width="320" height="1" fill="rgba(255,255,255,0.06)"/>
  <g transform="translate(12,9) scale(0.078125)" fill="none"><path d="M22 71.5L135 19" stroke="#3A9B4B" stroke-width="18" stroke-linecap="round"/><path d="M22 103.5L234 5" stroke="#3A9B4B" stroke-width="18" stroke-linecap="round"/><path d="M22 135.5L234 37" stroke="#3A9B4B" stroke-width="18" stroke-linecap="round"/><path d="M22 167.5L234 69" stroke="#3A9B4B" stroke-width="18" stroke-linecap="round"/><path d="M155 118L229 83.5" stroke="#3A9B4B" stroke-width="18" stroke-linecap="round"/><path d="M96 118V181H62L67 207H189L194 181H159V130" stroke="#3A9B4B" stroke-width="18" stroke-linecap="round" stroke-linejoin="round"/><path d="M71 217L184 197" stroke="#3A9B4B" stroke-width="12" stroke-linecap="round"/><path d="M75 239L176 221" stroke="#3A9B4B" stroke-width="12" stroke-linecap="round"/><path d="M112 150C112 147.7 114.5 146.3 116.5 147.5L142.5 163.2C145.5 165 145.5 170 142.5 171.8L116.5 187.5C114.5 188.7 112 187.3 112 185V150Z" fill="#D8D4CF"/></g>
  <text x="40" y="24" font-family="system-ui,sans-serif" font-size="11" font-weight="700" fill="#DEDAD5">sample-video.mkv — Lumyn</text>
  <circle cx="282" cy="19" r="5.5" fill="#4c4c4c"/>
  <circle cx="296" cy="19" r="5.5" fill="#4c4c4c"/>
  <circle cx="310" cy="19" r="5.5" fill="#4c4c4c"/>

  <!-- screen area -->
  <rect x="0" y="38" width="320" height="130" fill="#151515"/>
  <!-- green glow -->
  <radialGradient id="glow-bk" cx="20%" cy="30%" r="60%">
    <stop offset="0%" stop-color="#3a9b4b" stop-opacity="0.28"/>
    <stop offset="100%" stop-color="#151515" stop-opacity="0"/>
  </radialGradient>
  <rect x="0" y="38" width="320" height="130" fill="url(#glow-bk)"/>

  <!-- Bookmarks panel -->
  <rect x="186" y="46" width="126" height="114" rx="5" fill="#1A1A1A" stroke="rgba(255,255,255,0.08)" stroke-width="1"/>
  <text x="199" y="62" font-family="system-ui,sans-serif" font-size="9" font-weight="700" fill="#DEDAD5">Bookmarks</text>
  <line x1="196" y1="67" x2="304" y2="67" stroke="rgba(255,255,255,0.07)" stroke-width="1"/>
  <!-- bookmark rows -->
  <rect x="198" y="74" width="34" height="14" rx="3" fill="#2A2A2A"/>
  <text x="201" y="84" font-family="monospace,sans-serif" font-size="8" font-weight="700" fill="#3a9b4b">0:42</text>
  <text x="238" y="84" font-family="system-ui,sans-serif" font-size="8" fill="#C8C3C2">Opening credits</text>

  <rect x="198" y="93" width="34" height="14" rx="3" fill="#2A2A2A"/>
  <text x="201" y="103" font-family="monospace,sans-serif" font-size="8" font-weight="700" fill="#3a9b4b">12:05</text>
  <text x="238" y="103" font-family="system-ui,sans-serif" font-size="8" fill="#C8C3C2">Key scene</text>

  <rect x="198" y="112" width="34" height="14" rx="3" fill="#2A2A2A"/>
  <text x="201" y="122" font-family="monospace,sans-serif" font-size="8" font-weight="700" fill="#3a9b4b">38:17</text>
  <text x="238" y="122" font-family="system-ui,sans-serif" font-size="8" fill="#C8C3C2">Plot twist</text>

  <rect x="198" y="132" width="96" height="16" rx="3" fill="#2A3A2E" stroke="rgba(58,155,75,0.4)" stroke-width="1"/>
  <text x="224" y="143" font-family="system-ui,sans-serif" font-size="8" font-weight="600" fill="#3a9b4b">+ Add bookmark here</text>

  <!-- video content hint -->
  <text x="20" y="110" font-family="system-ui,sans-serif" font-size="14" font-weight="800" fill="#F7F5F3" opacity="0.85">Bookmarks</text>
  <text x="20" y="127" font-family="system-ui,sans-serif" font-size="9" fill="#807C79">Jump to any moment instantly</text>

  <!-- controls bar -->
  <rect x="0" y="168" width="320" height="52" fill="url(#ctrl-grad-bk)"/>
  <linearGradient id="ctrl-grad-bk" x1="0" y1="0" x2="0" y2="1">
    <stop offset="0%" stop-color="#111111"/>
    <stop offset="100%" stop-color="#050505"/>
  </linearGradient>
  <rect x="14" y="174" width="292" height="5" rx="2.5" fill="#3a3a3a"/>
  <rect x="14" y="174" width="110" height="5" rx="2.5" fill="#3a9b4b"/>
  <text x="14" y="198" font-family="system-ui,sans-serif" font-size="9" font-weight="700" fill="#6A6560">01:44</text>
  <rect x="134" y="189" width="14" height="14" rx="2" fill="#807C79" opacity="0.82"/>
  <rect x="153" y="189" width="14" height="14" rx="2" fill="#807C79" opacity="0.82"/>
  <rect x="172" y="189" width="14" height="14" rx="2" fill="#807C79" opacity="0.82"/>
  <rect x="191" y="189" width="14" height="14" rx="2" fill="#807C79" opacity="0.82"/>
  <text x="294" y="198" font-family="system-ui,sans-serif" font-size="9" font-weight="700" fill="#6A6560" text-anchor="end">1:28:04</text>
</svg>
